ply
format ascii 1.0
comment VCGLIB generated
element vertex 8
property float x
property float y
property float z
property float nx
property float ny
property float nz
property uchar red
property uchar green
property uchar blue
property uchar alpha
element face 12
property list uchar int vertex_indices
end_header
-0.0315 -0.0315 -0.0315 -1.99999 -2 -1.00397 0 60 115 255 
-0.0315 -0.0315 0.0315 -1 -1 2 0 60 115 255 
-0.0315 0.0315 0.0315 -1.99999 2 0.996031 0 60 115 255 
-0.0315 0.0315 -0.0315 -0.999992 1 -2.00397 0 60 115 255 
0.0315 -0.0315 -0.0315 0.999992 -1 -2.00397 0 60 115 255 
0.0315 -0.0315 0.0315 1.99999 -2 0.996031 0 60 115 255 
0.0315 0.0315 0.0315 1 1 2 0 60 115 255 
0.0315 0.0315 -0.0315 1.99999 2 -1.00397 0 60 115 255 
3 0 1 2 
3 0 2 3 
3 7 6 5 
3 7 5 4 
3 0 4 5 
3 0 5 1 
3 1 5 6 
3 1 6 2 
3 2 6 7 
3 2 7 3 
3 3 7 4 
3 3 4 0 
